<svg width="14" height="14" viewBox="0 0 14 14" fill="none" xmlns="http://www.w3.org/2000/svg">
<path d="M1.96875 2.46777C3.28125 1.15527 4.875 0.499023 6.75 0.499023C8.625 0.499023 10.2188 1.15527 11.5312 2.46777C12.8438 3.78027 13.5 5.37402 13.5 7.24902C13.5 9.12402 12.8438 10.7178 11.5312 12.0303C10.2188 13.3428 8.625 13.999 6.75 13.999C4.875 13.999 3.28125 13.3428 1.96875 12.0303C0.65625 10.7178 0 9.12402 0 7.24902C0 5.37402 0.65625 3.78027 1.96875 2.46777ZM11.0391 3.59277C10.4531 4.45996 9.45703 5.20996 8.05078 5.84277C8.19141 6.14746 8.34375 6.51074 8.50781 6.93262C9.82031 6.81543 11.1094 6.79199 12.375 6.8623C12.3047 5.62012 11.8594 4.53027 11.0391 3.59277ZM6.75 1.62402C6.35156 1.62402 5.89453 1.68262 5.37891 1.7998C6.08203 2.50293 6.80859 3.52246 7.55859 4.8584C8.82422 4.34277 9.75 3.69824 10.3359 2.9248C9.28125 2.05762 8.08594 1.62402 6.75 1.62402ZM4.21875 2.25684C2.71875 3.03027 1.74609 4.2373 1.30078 5.87793H2.17969C3.70312 5.87793 5.12109 5.67871 6.43359 5.28027C5.75391 4.06152 5.01562 3.05371 4.21875 2.25684ZM1.125 6.96777V7.24902C1.125 8.67871 1.59375 9.9209 2.53125 10.9756C3.42188 9.31152 4.85156 8.06934 6.82031 7.24902C6.9375 7.20215 7.10156 7.15527 7.3125 7.1084C7.17188 6.7334 7.05469 6.45215 6.96094 6.26465C5.55469 6.70996 3.9375 6.95605 2.10938 7.00293C2.01562 7.00293 1.85156 7.00293 1.61719 7.00293C1.38281 6.97949 1.21875 6.96777 1.125 6.96777ZM6.75 12.874C7.47656 12.874 8.14453 12.7568 8.75391 12.5225C8.63672 11.5381 8.46094 10.6123 8.22656 9.74512C8.13281 9.34668 7.94531 8.77246 7.66406 8.02246C7.38281 8.09277 7.18359 8.16309 7.06641 8.2334C5.30859 9.03027 4.05469 10.1787 3.30469 11.6787C4.33594 12.4756 5.48438 12.874 6.75 12.874ZM9.77344 11.96C11.3203 10.9521 12.1758 9.59277 12.3398 7.88184C10.957 7.78809 9.79688 7.78809 8.85938 7.88184C9.11719 8.6084 9.25781 9.05371 9.28125 9.21777C9.49219 10.0381 9.65625 10.9521 9.77344 11.96Z" fill="#8C8C8C"/>
</svg>
