<svg width="14" height="14" viewBox="0 0 14 14" fill="none" xmlns="http://www.w3.org/2000/svg">
<path d="M12.4102 0.499023C12.7148 0.499023 12.9727 0.604492 13.1836 0.81543C13.3945 1.00293 13.5 1.24902 13.5 1.55371V12.8389C13.5 13.1436 13.3945 13.4131 13.1836 13.6475C12.9727 13.8818 12.7148 13.999 12.4102 13.999H1.16016C0.855469 13.999 0.585938 13.8818 0.351562 13.6475C0.117188 13.4131 0 13.1436 0 12.8389V1.55371C0 1.24902 0.105469 1.00293 0.316406 0.81543C0.550781 0.604492 0.832031 0.499023 1.16016 0.499023H12.4102ZM4.18359 11.749V5.7373H2.25V11.749H4.18359ZM2.53125 4.54199C2.71875 4.72949 2.96484 4.82324 3.26953 4.82324C3.57422 4.82324 3.82031 4.72949 4.00781 4.54199C4.21875 4.33105 4.32422 4.08496 4.32422 3.80371C4.32422 3.49902 4.23047 3.25293 4.04297 3.06543C3.85547 2.85449 3.60938 2.74902 3.30469 2.74902C3 2.74902 2.74219 2.85449 2.53125 3.06543C2.34375 3.25293 2.25 3.49902 2.25 3.80371C2.25 4.08496 2.34375 4.33105 2.53125 4.54199ZM11.25 11.749V8.2334C11.25 7.36621 11.0391 6.70996 10.6172 6.26465C10.2188 5.81934 9.69141 5.59668 9.03516 5.59668C8.33203 5.59668 7.74609 5.9248 7.27734 6.58105V5.7373H5.34375V11.749H7.27734V8.33887C7.27734 8.10449 7.30078 7.94043 7.34766 7.84668C7.53516 7.37793 7.86328 7.14355 8.33203 7.14355C8.98828 7.14355 9.31641 7.57715 9.31641 8.44434V11.749H11.25Z" fill="#8C8C8C"/>
</svg>
