<svg width="385" height="321" viewBox="0 0 385 321" fill="none" xmlns="http://www.w3.org/2000/svg">
<path d="M297.495 192.986C301.775 192.986 305.883 192.257 309.971 191.592C308.646 196.567 307.284 201.627 305.096 206.173C302.908 212.778 299.491 218.503 296.094 224.271C293.254 230.511 288.244 234.735 284.559 240.075C280.702 245.264 275.443 248.716 271.278 253.026C267.19 257.529 261.835 259.781 257.574 262.954C253.121 265.806 249.244 268.958 245.099 270.459L234.754 275.219L225.656 279.444L234.965 321L246.423 317.912C250.089 316.883 254.561 315.682 259.647 314.245C264.848 313.173 270.395 310.236 276.575 307.555C282.678 304.51 289.741 302.452 296.305 297.563C302.908 292.888 310.527 288.986 317.245 282.724C323.751 276.27 331.601 270.674 337.397 262.461C343.731 254.784 349.988 246.722 354.844 237.544C360.467 228.796 364.287 219.189 368.317 209.69C371.964 200.191 374.9 190.477 377.299 181.042C381.848 162.13 383.882 144.161 384.669 128.786C385.322 113.39 384.938 100.589 384.132 91.3253C383.844 86.9509 383.307 82.7052 382.923 79.7675L382.443 76.1652L381.944 76.2938C378.53 58.4784 370.672 42.1068 359.278 29.0727C347.884 16.0387 333.42 6.87478 317.559 2.64126C301.698 -1.59229 285.088 -0.722543 269.651 5.14986C254.214 11.0223 240.581 21.6575 230.328 35.825C220.075 49.9926 213.622 67.1137 211.714 85.2077C209.807 103.302 212.524 121.629 219.551 138.07C226.577 154.511 237.626 168.394 251.42 178.112C265.214 187.83 281.188 192.987 297.495 192.986ZM86.3737 192.986C90.6538 192.986 94.761 192.257 98.8491 191.592C97.5248 196.567 96.1621 201.627 93.9741 206.173C91.7861 212.778 88.3698 218.503 84.9727 224.271C82.1321 230.511 77.1228 234.735 73.4378 240.075C69.58 245.264 64.3211 248.716 60.1563 253.026C56.0682 257.529 50.7134 259.781 46.4526 262.954C41.9998 265.806 38.1229 268.958 33.9772 270.459L23.6322 275.219L14.5348 279.444L23.8434 321L35.3015 317.912C38.9673 316.883 43.4393 315.682 48.5254 314.245C53.7267 313.173 59.2734 310.236 65.4535 307.555C71.5376 304.489 78.6198 302.452 85.1838 297.541C91.7861 292.867 99.4057 288.964 106.123 282.703C112.63 276.249 120.479 270.652 126.276 262.461C132.609 254.784 138.866 246.722 143.722 237.544C149.346 228.796 153.165 219.189 157.195 209.69C160.842 200.191 163.779 190.477 166.178 181.042C170.726 162.13 172.761 144.161 173.548 128.786C174.2 113.39 173.816 100.589 173.01 91.3252C172.722 86.9509 172.185 82.7052 171.801 79.7675L171.321 76.1651L170.822 76.2938C167.409 58.4784 159.55 42.1068 148.156 29.0727C136.762 16.0386 122.298 6.87476 106.437 2.64124C90.5763 -1.59231 73.9666 -0.722561 58.5296 5.14984C43.0926 11.0223 29.4591 21.6574 19.2062 35.825C8.95336 49.9926 2.50002 67.1136 0.592794 85.2077C-1.31443 103.302 1.40239 121.629 8.42894 138.07C15.4555 154.511 26.5047 168.394 40.2984 178.112C54.092 187.83 70.0664 192.987 86.3737 192.986Z" fill="#CFCFCF" fill-opacity="0.2"/>
</svg>
