<svg width="385" height="321" viewBox="0 0 385 321" fill="none" xmlns="http://www.w3.org/2000/svg">
<path d="M87.5047 128.014C83.2247 128.014 79.1174 128.743 75.0293 129.408C76.3536 124.433 77.7163 119.373 79.9043 114.827C82.0923 108.222 85.5086 102.497 88.9058 96.7289C91.7463 90.489 96.7556 86.2647 100.441 80.9254C104.298 75.7363 109.557 72.284 113.722 67.9739C117.81 63.4709 123.165 61.2194 127.426 58.0459C131.879 55.194 135.756 52.0419 139.901 50.5409L150.246 45.7806L159.344 41.5563L150.035 0L138.577 3.08777C134.911 4.11702 130.439 5.31783 125.353 6.7545C120.152 7.82664 114.605 10.7643 108.425 13.4447C102.322 16.4896 95.2586 18.5481 88.6946 23.4371C82.0923 28.1116 74.4727 32.0142 67.7552 38.2755C61.2488 44.7299 53.3989 50.3265 47.6027 58.5391C41.269 66.2156 35.0122 74.2781 30.1564 83.4557C24.5329 92.2044 20.7135 101.811 16.683 111.31C13.0363 120.809 10.0998 130.523 7.70071 139.958C3.15199 158.87 1.11755 176.839 0.330641 192.214C-0.321917 207.61 0.0619402 220.411 0.868041 229.675C1.15593 234.049 1.69334 238.295 2.07719 241.232L2.55701 244.835L3.05603 244.706C6.46969 262.522 14.3281 278.893 25.7221 291.927C37.1161 304.961 51.5802 314.125 67.4412 318.359C83.3021 322.592 99.9118 321.723 115.349 315.85C130.786 309.978 144.419 299.343 154.672 285.175C164.925 271.007 171.378 253.886 173.286 235.792C175.193 217.698 172.476 199.371 165.449 182.93C158.423 166.489 147.374 152.606 133.58 142.888C119.786 133.17 103.812 128.013 87.5047 128.014ZM298.626 128.014C294.346 128.014 290.239 128.743 286.151 129.408C287.475 124.433 288.838 119.373 291.026 114.827C293.214 108.222 296.63 102.497 300.027 96.7289C302.868 90.489 307.877 86.2647 311.562 80.9254C315.42 75.7363 320.679 72.284 324.844 67.9739C328.932 63.4709 334.287 61.2194 338.547 58.0459C343 55.194 346.877 52.0419 351.023 50.5409L361.368 45.7806L370.465 41.5563L361.157 0L349.698 3.08777C346.033 4.11702 341.561 5.31783 336.475 6.7545C331.273 7.82664 325.727 10.7643 319.547 13.4447C313.462 16.511 306.38 18.5481 299.816 23.4585C293.214 28.1331 285.594 32.0357 278.877 38.297C272.37 44.7513 264.521 50.3479 258.724 58.5391C252.391 66.2156 246.134 74.2781 241.278 83.4557C235.654 92.2044 231.835 101.811 227.805 111.31C224.158 120.809 221.221 130.523 218.822 139.958C214.274 158.87 212.239 176.839 211.452 192.214C210.8 207.61 211.184 220.411 211.99 229.675C212.278 234.049 212.815 238.295 213.199 241.232L213.679 244.835L214.178 244.706C217.591 262.522 225.45 278.893 236.844 291.927C248.238 304.961 262.702 314.125 278.563 318.359C294.424 322.592 311.033 321.723 326.47 315.85C341.907 309.978 355.541 299.343 365.794 285.175C376.047 271.007 382.5 253.886 384.407 235.792C386.314 217.698 383.598 199.371 376.571 182.93C369.544 166.489 358.495 152.606 344.702 142.888C330.908 133.17 314.934 128.013 298.626 128.014Z" fill="#CFCFCF" fill-opacity="0.2"/>
</svg>
