<svg width="18" height="14" viewBox="0 0 18 14" fill="none" xmlns="http://www.w3.org/2000/svg">
<path d="M17.8945 3.4873C17.9648 4.75293 18 6.00684 18 7.24902C18 8.49121 17.9648 9.74512 17.8945 11.0107C17.8945 11.8076 17.6367 12.4873 17.1211 13.0498C16.6289 13.5889 16.0195 13.8584 15.293 13.8584C13.4883 13.9521 11.3906 13.999 9 13.999C6.60938 13.999 4.51172 13.9521 2.70703 13.8584C1.98047 13.8584 1.35938 13.5889 0.84375 13.0498C0.351562 12.4873 0.105469 11.8076 0.105469 11.0107C0.0351562 9.74512 0 8.49121 0 7.24902C0 6.42871 0.046875 5.1748 0.140625 3.4873C0.140625 2.69043 0.386719 2.02246 0.878906 1.4834C1.37109 0.920898 1.98047 0.639648 2.70703 0.639648C4.41797 0.545898 6.41016 0.499023 8.68359 0.499023H9H9.31641C11.5898 0.499023 13.582 0.545898 15.293 0.639648C16.0195 0.639648 16.6289 0.920898 17.1211 1.4834C17.6367 2.02246 17.8945 2.69043 17.8945 3.4873ZM7.27734 10.6943L12.375 7.24902L7.27734 3.76855V10.6943Z" fill="#8C8C8C"/>
</svg>
